<?xml version="1.0" standalone="no"?>
<!DOCTYPE svg PUBLIC "-//W3C//DTD SVG 20010904//EN"
 "http://www.w3.org/TR/2001/REC-SVG-20010904/DTD/svg10.dtd">
<svg version="1.0" xmlns="http://www.w3.org/2000/svg"
 width="700.000000pt" height="700.000000pt" viewBox="0 0 700.000000 700.000000"
 preserveAspectRatio="xMidYMid meet">
<metadata>
Created by potrace 1.11, written by Peter Selinger 2001-2013
</metadata>
<g transform="translate(0.000000,700.000000) scale(0.100000,-0.100000)"
fill="#000000" stroke="none">
<path d="M3080 6963 c-293 -54 -622 -133 -715 -172 -11 -5 -42 -17 -70 -26
-162 -57 -410 -175 -590 -283 -392 -235 -754 -566 -1021 -937 -147 -203 -250
-381 -368 -635 -75 -164 -167 -443 -220 -675 -51 -218 -61 -342 -61 -730 0
-313 7 -455 31 -600 10 -61 10 -60 48 -218 80 -323 205 -633 372 -923 51 -89
180 -291 195 -304 3 -3 34 -43 69 -90 117 -155 321 -372 459 -488 31 -26 58
-49 61 -52 46 -48 258 -202 400 -291 130 -81 477 -259 506 -259 3 0 20 -7 37
-15 105 -48 483 -160 611 -179 21 -4 41 -8 45 -10 3 -2 31 -7 61 -10 30 -3 69
-8 85 -11 17 -3 43 -7 59 -10 123 -19 593 -27 716 -12 30 4 84 9 120 12 36 3
72 8 80 10 8 2 37 7 64 10 66 7 272 50 366 76 419 114 804 302 1155 565 61 45
119 91 130 101 12 10 54 47 95 83 528 463 923 1120 1090 1817 64 262 73 366
74 773 1 273 -6 461 -19 546 -3 16 -7 45 -10 64 -21 133 -82 363 -140 531 -77
221 -201 486 -316 672 -30 48 -58 96 -64 105 -20 36 -130 189 -184 257 -333
424 -725 742 -1197 970 -262 127 -456 195 -786 274 -218 53 -294 59 -803 65
-187 2 -351 2 -365 -1z m655 -507 c241 -16 314 -28 524 -83 443 -116 790 -294
1137 -584 118 -99 333 -317 427 -433 45 -56 84 -103 87 -106 12 -11 160 -240
198 -305 151 -264 259 -551 328 -870 34 -157 47 -305 48 -570 0 -155 -9 -378
-18 -421 -2 -12 -7 -45 -11 -75 -3 -30 -8 -62 -11 -71 -5 -17 -10 -43 -19 -88
-11 -63 -89 -311 -131 -418 -58 -149 -154 -350 -227 -473 -112 -191 -237 -346
-453 -564 -380 -384 -722 -594 -1229 -753 -339 -107 -463 -125 -850 -126 -174
0 -347 8 -435 19 -19 2 -55 7 -80 10 -412 53 -954 293 -1332 591 -264 208
-481 439 -642 684 -128 194 -282 503 -361 720 -28 78 -88 312 -100 390 -4 25
-9 54 -11 65 -13 67 -22 139 -33 267 -9 102 -7 416 3 488 3 25 8 68 11 95 2
28 6 59 9 70 2 11 7 43 11 70 17 124 85 376 149 552 86 238 278 580 436 777
90 112 155 183 279 305 324 319 668 536 1082 680 105 37 301 94 360 104 13 3
69 15 124 26 55 12 127 25 160 28 33 3 61 6 62 8 6 4 408 -3 508 -9z"/>
<path d="M3297 6244 c-1 -1 -40 -5 -86 -9 -47 -3 -116 -13 -153 -20 -37 -8
-80 -17 -95 -20 -57 -10 -75 -14 -169 -40 -171 -47 -325 -105 -489 -185 -290
-142 -493 -287 -735 -524 -436 -427 -702 -962 -794 -1596 -26 -176 -26 -522
-1 -720 43 -343 161 -700 322 -980 52 -90 70 -120 112 -180 119 -173 204 -275
365 -435 304 -302 627 -509 1010 -646 96 -35 307 -93 376 -105 14 -2 59 -11
100 -18 41 -8 104 -18 140 -21 36 -4 74 -9 85 -12 30 -6 404 -6 450 1 22 3 65
8 95 11 30 3 66 7 80 10 14 3 43 8 65 11 68 8 215 44 335 81 519 159 979 466
1326 883 282 338 471 727 568 1162 22 101 29 137 42 228 20 148 26 457 11 625
-21 240 -109 600 -194 795 -121 279 -279 536 -463 755 -44 52 -233 239 -296
293 -220 187 -551 383 -804 477 -41 15 -79 32 -85 36 -5 5 -16 9 -25 9 -8 0
-55 13 -105 29 -49 16 -103 32 -120 34 -16 3 -57 12 -90 20 -33 8 -85 18 -115
22 -30 4 -63 9 -74 11 -58 11 -579 27 -589 18z m543 -528 c87 -8 201 -30 300
-56 59 -16 323 -101 355 -115 45 -19 210 -80 298 -110 66 -22 108 -29 205 -34
9 -1 12 -137 12 -644 l0 -643 -34 -2 c-58 -4 -71 17 -116 194 -45 179 -80 276
-146 409 -138 276 -363 477 -634 568 -117 39 -148 46 -245 56 -93 10 -518 8
-545 -2 -8 -3 -32 -9 -53 -12 -47 -6 -190 -61 -285 -109 -153 -77 -299 -184
-427 -313 -305 -307 -488 -706 -541 -1179 -9 -82 -11 -337 -3 -415 17 -156 36
-270 65 -382 14 -58 69 -244 80 -277 3 -8 29 53 58 135 105 304 238 484 471
636 52 34 95 65 95 69 0 3 -21 53 -47 111 -72 159 -92 255 -88 419 3 193 42
323 139 468 172 258 501 417 841 406 202 -7 399 -71 540 -177 60 -45 161 -153
207 -220 76 -111 135 -266 134 -346 -1 -31 -4 -35 -30 -36 -36 -2 -73 29 -127
108 -75 110 -167 177 -325 240 -116 46 -188 60 -304 60 -183 -1 -333 -58 -449
-172 -114 -112 -166 -238 -164 -401 2 -225 51 -285 1133 -1370 480 -483 568
-560 720 -640 133 -69 217 -91 364 -96 79 -2 133 -8 137 -15 20 -33 -40 -97
-117 -128 -47 -18 -147 -42 -234 -55 -62 -9 -144 -43 -296 -119 -172 -87 -240
-116 -379 -164 -93 -31 -268 -79 -325 -89 -14 -3 -47 -9 -75 -14 -27 -6 -65
-13 -82 -15 -18 -3 -46 -7 -61 -9 -160 -25 -545 -25 -614 -1 -7 2 -31 6 -53 9
-72 8 -278 57 -395 96 -600 195 -1064 593 -1326 1137 -71 146 -142 349 -160
452 -3 14 -9 43 -15 64 -6 21 -12 55 -15 75 -2 20 -9 62 -14 92 -39 208 -31
585 16 823 52 259 204 589 371 802 13 17 27 35 31 40 26 37 118 141 177 201
364 373 934 661 1365 691 47 3 86 6 88 8 5 4 460 -3 522 -9z m1692 -2416 c-6
-102 -11 -109 -92 -135 -145 -46 -267 -157 -293 -266 -11 -46 -17 -128 -22
-334 -7 -303 -16 -496 -24 -535 -6 -29 -11 -35 -31 -32 -19 2 -135 65 -150 81
-3 3 -27 22 -55 41 -136 94 -362 306 -394 368 -22 44 -28 73 -36 167 -13 153
-17 182 -31 240 -36 142 -98 202 -273 265 -74 26 -97 39 -111 62 -16 27 -20
92 -5 106 3 3 58 7 123 10 64 2 120 4 125 5 4 1 292 2 640 2 l632 0 -3 -45z"/>
<path d="M2965 3095 c-16 -14 -51 -43 -77 -66 -93 -78 -191 -247 -223 -381
-14 -62 -14 -209 0 -288 21 -116 75 -243 150 -354 63 -93 99 -133 188 -209
163 -138 336 -194 597 -194 273 0 434 58 619 225 l53 48 -518 520 c-286 286
-546 544 -579 574 -33 30 -84 76 -112 103 -29 26 -56 47 -60 47 -4 0 -21 -11
-38 -25z"/>
</g>
</svg>
